<svg xmlns="http://www.w3.org/2000/svg" xmlns:xlink="http://www.w3.org/1999/xlink" width="500" zoomAndPan="magnify" viewBox="0 0 375 330.749987" height="441" preserveAspectRatio="xMidYMid meet" version="1.0"><path fill="#e03131" d="M 153.632812 231.808594 C 154.128906 232.015625 154.28125 232.21875 154.484375 232.710938 C 155.507812 235.171875 156.0625 237.863281 157.007812 240.367188 C 158.78125 245.058594 160.910156 249.589844 162.902344 254.1875 C 160.035156 253.640625 157.210938 253.328125 154.375 252.585938 C 150.363281 251.285156 147.023438 249.492188 143.582031 247.097656 C 148.027344 242.761719 151.070312 237.402344 153.632812 231.808594 Z M 153.632812 231.808594 " fill-opacity="1" fill-rule="nonzero"/><path fill="#e03131" d="M 210.125 241.390625 C 210.8125 241.6875 211.652344 244.816406 211.957031 245.621094 C 213.738281 250.273438 216.820312 254.929688 220.136719 258.625 C 215.828125 260.925781 211.375 263.066406 206.921875 265.082031 C 206.089844 265.496094 205.222656 265.855469 204.359375 266.199219 C 203.117188 266.691406 200.84375 267.589844 199.566406 266.957031 C 199.234375 266.796875 198.988281 266.523438 198.878906 266.164062 C 197.617188 262.117188 207.890625 245.820312 210.125 241.390625 Z M 210.125 241.390625 " fill-opacity="1" fill-rule="nonzero"/><path fill="#e03131" d="M 189.652344 231.039062 C 191.164062 231.328125 192.722656 232.078125 194.195312 232.570312 C 196.796875 233.4375 199.34375 234.054688 202.046875 234.507812 C 201.605469 235.308594 201.140625 236.097656 200.660156 236.875 C 196.273438 243.988281 188.289062 256.496094 179.714844 258.53125 C 179.160156 258.675781 178.617188 258.738281 178.042969 258.695312 C 176.207031 258.558594 174.65625 257.34375 173.546875 255.953125 C 169.652344 251.054688 167.300781 241.015625 168.023438 234.96875 C 177.113281 234.996094 181.144531 233.992188 189.652344 231.039062 Z M 189.652344 231.039062 " fill-opacity="1" fill-rule="nonzero"/><path fill="#e03131" d="M 181.140625 0 L 192.449219 0 L 192.398438 0.199219 C 193.828125 0.238281 195.257812 0.296875 196.6875 0.375 C 198.117188 0.449219 199.542969 0.542969 200.96875 0.652344 C 202.398438 0.761719 203.820312 0.886719 205.246094 1.03125 C 206.667969 1.171875 208.089844 1.332031 209.511719 1.507812 C 210.929688 1.6875 212.347656 1.878906 213.765625 2.089844 C 215.179688 2.296875 216.59375 2.523438 218.003906 2.765625 C 219.414062 3.007812 220.820312 3.269531 222.226562 3.542969 C 223.628906 3.820312 225.03125 4.113281 226.425781 4.421875 C 227.824219 4.730469 229.21875 5.054688 230.605469 5.398438 C 231.996094 5.738281 233.382812 6.097656 234.761719 6.46875 C 236.144531 6.84375 237.519531 7.234375 238.894531 7.640625 C 240.265625 8.046875 241.632812 8.46875 242.992188 8.910156 C 244.355469 9.347656 245.710938 9.800781 247.0625 10.273438 C 248.414062 10.742188 249.761719 11.226562 251.101562 11.730469 C 252.441406 12.234375 253.773438 12.75 255.101562 13.285156 C 256.429688 13.816406 257.753906 14.367188 259.066406 14.929688 C 260.382812 15.496094 261.691406 16.074219 262.992188 16.667969 C 264.292969 17.265625 265.585938 17.875 266.875 18.5 C 268.160156 19.125 269.441406 19.765625 270.710938 20.421875 C 271.984375 21.078125 273.246094 21.75 274.503906 22.433594 C 275.761719 23.121094 277.007812 23.820312 278.246094 24.535156 C 279.488281 25.25 280.71875 25.976562 281.941406 26.722656 C 283.164062 27.464844 284.378906 28.222656 285.582031 28.996094 C 286.785156 29.765625 287.980469 30.554688 289.167969 31.355469 C 290.355469 32.152344 291.53125 32.96875 292.699219 33.796875 C 293.867188 34.625 295.023438 35.464844 296.171875 36.320312 C 297.316406 37.175781 298.453125 38.042969 299.582031 38.925781 C 300.707031 39.808594 301.824219 40.703125 302.929688 41.609375 C 304.035156 42.519531 305.132812 43.4375 306.214844 44.371094 C 307.300781 45.304688 308.375 46.253906 309.4375 47.210938 C 310.496094 48.171875 311.546875 49.140625 312.589844 50.125 C 313.628906 51.109375 314.65625 52.105469 315.671875 53.113281 C 316.734375 54.160156 317.78125 55.222656 318.820312 56.296875 C 319.855469 57.371094 320.878906 58.457031 321.886719 59.554688 C 322.898438 60.65625 323.894531 61.765625 324.878906 62.890625 C 325.859375 64.015625 326.828125 65.152344 327.78125 66.296875 C 328.738281 67.445312 329.675781 68.605469 330.601562 69.777344 C 331.527344 70.949219 332.441406 72.128906 333.335938 73.324219 C 334.234375 74.515625 335.117188 75.71875 335.984375 76.933594 C 336.851562 78.148438 337.703125 79.375 338.539062 80.609375 C 339.375 81.847656 340.199219 83.09375 341.003906 84.347656 C 341.8125 85.605469 342.601562 86.871094 343.375 88.148438 C 344.152344 89.421875 344.910156 90.707031 345.65625 92 C 346.398438 93.296875 347.125 94.601562 347.835938 95.914062 C 348.550781 97.222656 349.246094 98.546875 349.921875 99.875 C 350.601562 101.203125 351.265625 102.542969 351.910156 103.886719 C 352.558594 105.234375 353.1875 106.585938 353.800781 107.949219 C 354.410156 109.308594 355.007812 110.675781 355.585938 112.054688 C 356.164062 113.429688 356.726562 114.8125 357.273438 116.199219 C 357.816406 117.589844 358.347656 118.988281 358.855469 120.390625 C 359.367188 121.792969 359.859375 123.199219 360.335938 124.617188 C 360.8125 126.03125 361.269531 127.449219 361.710938 128.878906 C 362.152344 130.304688 362.578125 131.734375 362.980469 133.171875 C 363.386719 134.605469 363.777344 136.046875 364.148438 137.496094 C 364.515625 138.941406 364.871094 140.390625 365.203125 141.847656 C 365.539062 143.300781 365.855469 144.757812 366.152344 146.222656 C 366.453125 147.683594 366.734375 149.148438 366.996094 150.621094 C 367.257812 152.089844 367.503906 153.5625 367.730469 155.035156 C 367.957031 156.511719 368.164062 157.992188 368.355469 159.472656 C 368.542969 160.953125 368.714844 162.433594 368.867188 163.917969 C 369.023438 165.402344 369.15625 166.890625 369.273438 168.378906 C 369.390625 169.867188 369.492188 171.355469 369.570312 172.847656 C 369.652344 174.335938 369.710938 175.828125 369.757812 177.320312 C 369.800781 178.8125 369.824219 180.304688 369.832031 181.796875 C 369.839844 182.964844 369.839844 184.132812 369.828125 185.300781 C 369.8125 186.46875 369.789062 187.636719 369.753906 188.804688 C 369.71875 189.972656 369.671875 191.136719 369.613281 192.304688 C 369.554688 193.472656 369.488281 194.636719 369.40625 195.800781 C 369.328125 196.96875 369.234375 198.132812 369.132812 199.296875 C 369.03125 200.457031 368.914062 201.621094 368.789062 202.78125 C 368.667969 203.945312 368.53125 205.101562 368.382812 206.261719 C 368.234375 207.421875 368.078125 208.578125 367.90625 209.734375 C 367.738281 210.890625 367.558594 212.042969 367.367188 213.195312 C 367.175781 214.347656 366.972656 215.496094 366.757812 216.644531 C 366.542969 217.792969 366.320312 218.941406 366.085938 220.082031 C 365.847656 221.226562 365.601562 222.367188 365.34375 223.507812 C 365.085938 224.648438 364.816406 225.785156 364.539062 226.917969 C 364.257812 228.050781 363.96875 229.183594 363.667969 230.3125 C 363.367188 231.441406 363.054688 232.566406 362.730469 233.6875 C 362.410156 234.808594 362.074219 235.929688 361.730469 237.046875 C 361.386719 238.160156 361.03125 239.273438 360.667969 240.382812 C 360.300781 241.492188 359.925781 242.597656 359.539062 243.699219 C 359.152344 244.800781 358.753906 245.898438 358.347656 246.996094 C 357.9375 248.089844 357.519531 249.179688 357.089844 250.265625 C 356.660156 251.351562 356.222656 252.433594 355.773438 253.511719 C 355.324219 254.589844 354.863281 255.664062 354.394531 256.734375 C 353.921875 257.800781 353.441406 258.867188 352.953125 259.925781 C 352.460938 260.984375 351.960938 262.042969 351.449219 263.089844 C 350.9375 264.140625 350.417969 265.1875 349.886719 266.226562 C 349.355469 267.265625 348.8125 268.300781 348.261719 269.332031 C 347.710938 270.363281 347.152344 271.386719 346.582031 272.40625 C 346.011719 273.425781 345.429688 274.4375 344.839844 275.445312 C 344.25 276.453125 343.652344 277.457031 343.042969 278.453125 C 342.433594 279.449219 341.8125 280.441406 341.183594 281.425781 C 340.558594 282.410156 339.917969 283.386719 339.273438 284.359375 C 338.625 285.332031 337.96875 286.296875 337.304688 287.257812 C 333.664062 292.484375 328.71875 299.453125 324.230469 303.976562 C 320.332031 303.8125 316.34375 302.941406 312.453125 302.519531 C 305.691406 301.859375 298.914062 301.398438 292.125 301.144531 C 287.511719 300.972656 282.929688 301.21875 278.324219 301.402344 C 273.484375 301.5625 268.65625 301.875 263.839844 302.34375 C 259.023438 302.816406 254.222656 303.4375 249.445312 304.210938 C 244.667969 304.988281 239.917969 305.914062 235.199219 306.992188 C 230.480469 308.066406 225.800781 309.296875 221.160156 310.671875 C 214.8125 312.5 208.601562 314.765625 202.328125 316.824219 C 202.023438 305.875 202.332031 291.402344 207.023438 281.320312 C 211.054688 272.652344 219.207031 268.542969 227.789062 265.378906 C 230.136719 266.542969 232.320312 268.023438 234.707031 269.117188 C 235.742188 269.589844 236.792969 270.019531 237.859375 270.417969 C 238.925781 270.8125 240.003906 271.167969 241.097656 271.488281 C 242.191406 271.804688 243.292969 272.085938 244.402344 272.324219 C 245.515625 272.5625 246.636719 272.761719 247.761719 272.921875 C 248.886719 273.082031 250.019531 273.203125 251.152344 273.28125 C 252.285156 273.359375 253.421875 273.398438 254.5625 273.398438 C 255.699219 273.394531 256.835938 273.351562 257.96875 273.269531 C 259.101562 273.1875 260.234375 273.0625 261.359375 272.898438 C 262.097656 272.796875 262.835938 272.671875 263.566406 272.53125 C 264.300781 272.394531 265.03125 272.234375 265.757812 272.058594 C 266.484375 271.882812 267.203125 271.6875 267.921875 271.476562 C 268.636719 271.265625 269.347656 271.035156 270.050781 270.789062 C 270.757812 270.542969 271.457031 270.28125 272.148438 270 C 272.839844 269.71875 273.523438 269.421875 274.203125 269.109375 C 274.878906 268.796875 275.550781 268.464844 276.210938 268.117188 C 276.871094 267.769531 277.523438 267.40625 278.167969 267.027344 C 278.8125 266.648438 279.445312 266.253906 280.070312 265.847656 C 280.691406 265.4375 281.308594 265.011719 281.910156 264.570312 C 282.511719 264.128906 283.105469 263.675781 283.6875 263.207031 C 284.269531 262.738281 284.835938 262.253906 285.394531 261.757812 C 285.953125 261.261719 286.496094 260.75 287.027344 260.226562 C 287.5625 259.703125 288.082031 259.167969 288.585938 258.617188 C 289.09375 258.066406 289.585938 257.507812 290.0625 256.933594 C 290.542969 256.359375 291.003906 255.773438 291.457031 255.179688 C 299.007812 245.003906 300.9375 233.953125 299.097656 221.574219 C 301.160156 220.1875 303.839844 219.398438 306.03125 218.125 C 313.035156 214.046875 318.96875 207.460938 322.671875 200.28125 C 322.921875 199.785156 323.164062 199.285156 323.390625 198.78125 C 323.621094 198.277344 323.839844 197.765625 324.050781 197.253906 C 324.261719 196.742188 324.457031 196.222656 324.648438 195.703125 C 324.835938 195.179688 325.015625 194.65625 325.179688 194.128906 C 325.347656 193.601562 325.507812 193.070312 325.652344 192.535156 C 325.800781 192 325.933594 191.464844 326.058594 190.921875 C 326.183594 190.382812 326.296875 189.839844 326.402344 189.296875 C 326.503906 188.75 326.597656 188.207031 326.679688 187.65625 C 326.761719 187.109375 326.832031 186.558594 326.890625 186.007812 C 326.949219 185.457031 327 184.90625 327.035156 184.351562 C 327.074219 183.800781 327.101562 183.246094 327.117188 182.691406 C 327.132812 182.140625 327.136719 181.585938 327.128906 181.03125 C 327.121094 180.476562 327.105469 179.921875 327.074219 179.371094 C 327.046875 178.816406 327.007812 178.261719 326.957031 177.710938 C 326.90625 177.160156 326.84375 176.609375 326.769531 176.058594 C 326.699219 175.511719 326.613281 174.960938 326.519531 174.417969 C 325.9375 171.207031 324.921875 168.140625 323.941406 165.039062 C 324.332031 163.265625 324.984375 161.523438 325.492188 159.773438 C 326.902344 154.90625 327.460938 150.082031 326.976562 145.015625 C 325.808594 132.824219 319.988281 122.664062 310.59375 114.914062 C 310.621094 102.121094 308.789062 90.625 301.386719 79.863281 C 295.046875 70.648438 285.835938 63.488281 275.074219 60.253906 C 271.851562 59.285156 268.609375 58.800781 265.3125 58.195312 C 261.605469 49.566406 255.648438 41.777344 247.996094 36.304688 C 237.953125 29.117188 225.023438 25.605469 212.75 27.667969 C 200.289062 29.761719 188.378906 36.667969 180.992188 47.042969 C 177.40625 45.972656 174.027344 44.277344 170.394531 43.277344 C 169.574219 43.054688 168.75 42.851562 167.921875 42.664062 C 167.09375 42.476562 166.261719 42.304688 165.425781 42.148438 C 164.59375 41.996094 163.753906 41.855469 162.914062 41.734375 C 162.074219 41.613281 161.230469 41.507812 160.386719 41.417969 C 159.542969 41.332031 158.695312 41.261719 157.847656 41.207031 C 157 41.152344 156.152344 41.113281 155.304688 41.09375 C 154.453125 41.070312 153.605469 41.066406 152.753906 41.082031 C 151.90625 41.09375 151.058594 41.121094 150.207031 41.167969 C 149.359375 41.214844 148.515625 41.277344 147.667969 41.359375 C 146.824219 41.4375 145.980469 41.535156 145.136719 41.648438 C 144.296875 41.761719 143.457031 41.894531 142.621094 42.039062 C 141.785156 42.1875 140.949219 42.351562 140.121094 42.53125 C 139.289062 42.710938 138.464844 42.90625 137.640625 43.117188 C 136.820312 43.332031 136.003906 43.558594 135.191406 43.804688 C 134.375 44.050781 133.566406 44.3125 132.765625 44.589844 C 131.960938 44.867188 131.164062 45.160156 130.375 45.46875 C 120.480469 49.414062 111.003906 56.296875 105.558594 65.621094 C 104.039062 68.222656 103.054688 71.003906 101.871094 73.757812 C 99.378906 74.90625 96.292969 75.199219 93.632812 76.019531 C 80.910156 79.9375 69.207031 88.40625 62.929688 100.328125 C 58.355469 109.015625 56.585938 119.683594 59.53125 129.199219 C 56.9375 132.597656 54.097656 135.25 51.921875 139.03125 C 46.265625 148.84375 45 160.027344 47.953125 170.910156 C 51.152344 182.703125 59.632812 191.753906 70.058594 197.671875 C 69.152344 199.617188 68.261719 201.59375 67.535156 203.613281 C 67.308594 204.242188 67.097656 204.875 66.902344 205.511719 C 66.707031 206.148438 66.527344 206.789062 66.363281 207.433594 C 66.199219 208.078125 66.050781 208.730469 65.917969 209.382812 C 65.785156 210.035156 65.667969 210.691406 65.570312 211.347656 C 65.46875 212.007812 65.386719 212.667969 65.316406 213.332031 C 65.25 213.992188 65.199219 214.65625 65.164062 215.324219 C 65.128906 215.988281 65.109375 216.652344 65.105469 217.320312 C 65.105469 217.984375 65.117188 218.652344 65.148438 219.316406 C 65.175781 219.984375 65.222656 220.648438 65.285156 221.3125 C 65.347656 221.972656 65.425781 222.636719 65.523438 223.292969 C 65.617188 223.953125 65.726562 224.609375 65.855469 225.265625 C 65.980469 225.917969 66.125 226.570312 66.285156 227.214844 C 66.441406 227.863281 66.617188 228.503906 66.808594 229.144531 C 66.996094 229.78125 67.203125 230.414062 67.425781 231.042969 C 67.644531 231.671875 67.882812 232.292969 68.132812 232.910156 C 68.386719 233.527344 68.652344 234.136719 68.933594 234.742188 C 69.25 235.40625 69.578125 236.0625 69.925781 236.710938 C 70.273438 237.359375 70.636719 238 71.015625 238.628906 C 71.394531 239.257812 71.785156 239.878906 72.195312 240.492188 C 72.605469 241.101562 73.027344 241.703125 73.46875 242.292969 C 73.90625 242.882812 74.359375 243.460938 74.824219 244.03125 C 75.292969 244.597656 75.773438 245.152344 76.269531 245.699219 C 76.761719 246.242188 77.269531 246.773438 77.789062 247.292969 C 78.3125 247.8125 78.84375 248.320312 79.390625 248.8125 C 79.933594 249.304688 80.492188 249.785156 81.0625 250.25 C 81.628906 250.714844 82.210938 251.164062 82.800781 251.601562 C 83.394531 252.039062 83.996094 252.460938 84.605469 252.871094 C 85.21875 253.277344 85.839844 253.667969 86.472656 254.046875 C 87.101562 254.421875 87.742188 254.78125 88.394531 255.128906 C 89.042969 255.472656 89.699219 255.800781 90.363281 256.113281 C 91.03125 256.429688 91.703125 256.722656 92.382812 257.003906 C 93.0625 257.285156 93.75 257.546875 94.441406 257.792969 C 107.113281 262.316406 120.25 261.113281 132.300781 255.4375 C 138.886719 258.339844 151.929688 269.269531 155.957031 275.363281 C 162.257812 284.886719 162.640625 300.503906 162.523438 311.570312 C 162.46875 316.914062 162.40625 321.96875 161.328125 327.230469 C 157.671875 328.136719 153.265625 328.199219 149.492188 328.417969 C 123.1875 329.945312 96.828125 325.546875 71.664062 318.125 C 67.742188 316.96875 60.902344 315.554688 57.867188 312.820312 C 56.257812 311.371094 54.796875 309.683594 53.304688 308.105469 C 48.796875 303.324219 44.621094 298.414062 40.664062 293.167969 C 17.863281 262.925781 5.808594 228.480469 3.859375 190.78125 C 3.796875 189.296875 3.75 187.808594 3.722656 186.320312 C 3.695312 184.835938 3.6875 183.347656 3.695312 181.859375 C 3.703125 180.375 3.730469 178.886719 3.773438 177.398438 C 3.820312 175.914062 3.882812 174.425781 3.964844 172.941406 C 4.042969 171.457031 4.144531 169.972656 4.261719 168.492188 C 4.378906 167.007812 4.515625 165.527344 4.667969 164.046875 C 4.820312 162.570312 4.992188 161.089844 5.183594 159.617188 C 5.371094 158.140625 5.582031 156.667969 5.804688 155.199219 C 6.03125 153.730469 6.277344 152.261719 6.539062 150.796875 C 6.800781 149.332031 7.078125 147.871094 7.375 146.417969 C 7.671875 144.957031 7.988281 143.503906 8.320312 142.054688 C 8.652344 140.605469 9.003906 139.160156 9.371094 137.71875 C 9.738281 136.277344 10.125 134.84375 10.527344 133.410156 C 10.933594 131.980469 11.351562 130.554688 11.789062 129.132812 C 12.230469 127.710938 12.683594 126.292969 13.15625 124.886719 C 13.628906 123.476562 14.121094 122.070312 14.625 120.671875 C 15.132812 119.273438 15.65625 117.882812 16.199219 116.496094 C 16.738281 115.113281 17.296875 113.734375 17.871094 112.363281 C 18.445312 110.988281 19.039062 109.625 19.644531 108.269531 C 20.253906 106.910156 20.878906 105.5625 21.519531 104.21875 C 22.160156 102.878906 22.816406 101.542969 23.492188 100.21875 C 24.164062 98.890625 24.855469 97.574219 25.5625 96.265625 C 26.265625 94.957031 26.988281 93.65625 27.726562 92.363281 C 28.464844 91.074219 29.21875 89.789062 29.984375 88.515625 C 30.753906 87.242188 31.539062 85.980469 32.339844 84.726562 C 33.140625 83.472656 33.953125 82.230469 34.785156 80.996094 C 35.613281 79.761719 36.460938 78.539062 37.320312 77.324219 C 38.179688 76.109375 39.054688 74.90625 39.945312 73.714844 C 40.832031 72.523438 41.738281 71.34375 42.65625 70.171875 C 43.574219 69.003906 44.507812 67.84375 45.453125 66.699219 C 46.398438 65.550781 47.359375 64.414062 48.335938 63.292969 C 49.308594 62.167969 50.296875 61.058594 51.300781 59.957031 C 52.15625 59.015625 53.023438 58.082031 53.898438 57.160156 C 54.773438 56.234375 55.660156 55.320312 56.554688 54.417969 C 57.449219 53.511719 58.355469 52.617188 59.269531 51.730469 C 60.183594 50.84375 61.105469 49.964844 62.039062 49.097656 C 62.96875 48.230469 63.910156 47.375 64.859375 46.527344 C 65.8125 45.679688 66.769531 44.84375 67.738281 44.015625 C 68.703125 43.1875 69.679688 42.371094 70.664062 41.5625 C 71.648438 40.753906 72.640625 39.957031 73.644531 39.171875 C 74.644531 38.386719 75.652344 37.609375 76.671875 36.84375 C 77.6875 36.078125 78.710938 35.324219 79.746094 34.578125 C 80.777344 33.835938 81.820312 33.101562 82.867188 32.378906 C 83.914062 31.65625 84.972656 30.945312 86.035156 30.246094 C 87.097656 29.542969 88.167969 28.855469 89.242188 28.175781 C 90.320312 27.496094 91.40625 26.832031 92.496094 26.175781 C 93.589844 25.519531 94.6875 24.875 95.792969 24.242188 C 96.894531 23.609375 98.007812 22.988281 99.125 22.378906 C 100.242188 21.769531 101.367188 21.171875 102.496094 20.585938 C 103.625 20 104.761719 19.425781 105.902344 18.859375 C 107.046875 18.296875 108.195312 17.746094 109.347656 17.210938 C 110.5 16.671875 111.660156 16.144531 112.824219 15.628906 C 113.988281 15.113281 115.15625 14.613281 116.332031 14.121094 C 117.507812 13.632812 118.6875 13.152344 119.871094 12.6875 C 121.058594 12.222656 122.246094 11.769531 123.441406 11.328125 C 124.636719 10.886719 125.835938 10.460938 127.039062 10.042969 C 128.242188 9.628906 129.449219 9.222656 130.660156 8.832031 C 131.871094 8.441406 133.085938 8.0625 134.308594 7.699219 C 135.527344 7.332031 136.75 6.980469 137.976562 6.640625 C 139.203125 6.300781 140.433594 5.972656 141.667969 5.660156 C 142.902344 5.34375 144.136719 5.042969 145.378906 4.753906 C 146.617188 4.464844 147.859375 4.191406 149.105469 3.929688 C 150.351562 3.664062 151.597656 3.414062 152.851562 3.179688 C 154.101562 2.941406 155.355469 2.71875 156.609375 2.507812 C 164.652344 1.171875 172.984375 0.613281 181.121094 0.203125 Z M 181.140625 0 L 181.121094 0.203125 C 183.109375 0.375 185.132812 0.207031 187.128906 0.207031 C 188.867188 0.207031 190.671875 0.398438 192.398438 0.199219 L 192.449219 0 Z M 181.140625 0 " fill-opacity="1" fill-rule="nonzero"/><path fill="#e03131" d="M 181.140625 0 L 192.449219 0 L 192.398438 0.199219 C 190.671875 0.398438 188.867188 0.207031 187.128906 0.207031 C 185.132812 0.207031 183.109375 0.375 181.121094 0.203125 Z M 181.140625 0 " fill-opacity="1" fill-rule="nonzero"/></svg>